<?xml version="1.0" encoding="UTF-8"?><svg id="a" xmlns="http://www.w3.org/2000/svg" width="20.69" height="20.69" viewBox="0 0 20.69 20.69"><circle cx="10.34" cy="10.34" r="10.34" fill="#fff"/><g id="b"><g id="c"><g id="d"><path d="M10.07,3.26l-.16-.99c.15-.02.28-.03.43-.03v1c-.09,0-.18,0-.27.01Z"/><path d="M10.62,3.26c-.09-.02-.19-.01-.28-.01v-1c.15,0,.3,0,.44.03l-.17.99Z"/><path d="M10.34,18.44c-2.03,0-3.97-.76-5.47-2.13l-.52-.53c-1.37-1.5-2.11-3.43-2.11-5.44,0-4.35,3.4-7.9,7.73-8.08.09-.02.22-.02.37-.02s.3,0,.44.03c4.27.19,7.67,3.74,7.67,8.07s-3.64,8.1-8.11,8.1ZM11.2,16.67c1.1-.14,2.12-.56,2.99-1.24l-2.99-3.04v4.28ZM6.46,15.4c.88.68,1.93,1.12,3.03,1.26v-4.29l-3.03,3.03ZM15.41,14.22c.85-1.1,1.32-2.46,1.32-3.88,0-1.71-.67-3.32-1.87-4.52-1-1-2.28-1.63-3.66-1.81v5.93l4.21,4.27ZM9.49,4.02c-1.38.18-2.66.81-3.66,1.81-1.21,1.2-1.87,2.8-1.87,4.52,0,1.43.44,2.75,1.29,3.84l4.24-4.24v-5.93Z"/></g></g></g></svg>