<?xml version="1.0" encoding="UTF-8"?><svg id="a" xmlns="http://www.w3.org/2000/svg" width="20.69" height="20.69" viewBox="0 0 20.69 20.69"><circle cx="10.34" cy="10.34" r="10.34" fill="#fff"/><g id="b"><g id="c"><path d="M10.34,3.46c1.84,0,3.57.72,4.87,2.02s2.02,3.03,2.02,4.87-.72,3.57-2.02,4.87-3.03,2.02-4.87,2.02-3.57-.72-4.87-2.02c-1.3-1.3-2.02-3.03-2.02-4.87s.72-3.57,2.02-4.87c1.3-1.3,3.03-2.02,4.87-2.02M10.34,2.74c-4.2,0-7.6,3.4-7.6,7.6s3.4,7.6,7.6,7.6,7.6-3.4,7.6-7.6-3.4-7.6-7.6-7.6h0Z"/></g><g id="d"><g id="e"><line x1="10.34" y1="2.74" x2="10.34" y2="17.37" fill="none" stroke="#000" stroke-miterlimit="10" stroke-width=".71"/><line x1="10.34" y1="10.31" x2="4.96" y2="15.7" fill="none" stroke="#000" stroke-miterlimit="10" stroke-width=".71"/><line x1="10.34" y1="10.31" x2="15.48" y2="15.52" fill="none" stroke="#000" stroke-miterlimit="10" stroke-width=".71"/></g></g></g></svg>