<?xml version="1.0" encoding="UTF-8"?><svg id="Layer_1" xmlns="http://www.w3.org/2000/svg" viewBox="0 0 706.01 706.01"><defs><style>.cls-1{fill:#fff;}</style></defs><circle class="cls-1" cx="353.01" cy="353.01" r="353.01"/><path d="M46.58,446.94c0-5.21,2.61-7.83,7.83-7.83s7.83-2.61,7.83-7.83-2.62-7.83-7.83-7.83-7.83-2.61-7.83-7.83v-203.53c0-5.21,2.61-7.83,7.83-7.83h46.97c5.21,0,7.83,2.62,7.83,7.83s2.61,7.83,7.83,7.83,7.83-2.61,7.83-7.83,2.6-7.83,7.83-7.83h46.97c5.21,0,7.83,2.62,7.83,7.83v46.97c0,5.22-2.62,7.83-7.83,7.83s-7.83,2.62-7.83,7.83,2.61,7.83,7.83,7.83,7.83,2.62,7.83,7.83v125.25c0,5.22-2.62,7.83-7.83,7.83s-7.83,2.62-7.83,7.83,2.61,7.83,7.83,7.83h31.31c5.21,0,7.83-2.61,7.83-7.83s-2.62-7.83-7.83-7.83-7.83-2.61-7.83-7.83v-125.25c0-5.21,2.61-7.83,7.83-7.83s7.83-2.61,7.83-7.83-2.62-7.83-7.83-7.83-7.83-2.61-7.83-7.83v-46.97c0-5.21,2.61-7.83,7.83-7.83h125.25c5.21,0,7.83,2.62,7.83,7.83v46.97c0,5.22-2.62,7.83-7.83,7.83s-7.83,2.62-7.83,7.83,2.61,7.83,7.83,7.83,7.83,2.62,7.83,7.83v203.53c0,5.22-2.62,7.83-7.83,7.83h-46.97c-5.22,0-7.83-2.6-7.83-7.83v-203.53c0-5.21,2.61-7.83,7.83-7.83s7.83-2.61,7.83-7.83-2.62-7.83-7.83-7.83h-31.31c-5.22,0-7.83,2.62-7.83,7.83s2.6,7.83,7.83,7.83,7.83,2.62,7.83,7.83v125.25c0,5.22-2.62,7.83-7.83,7.83s-7.83,2.62-7.83,7.83,2.6,7.83,7.83,7.83,7.83,2.62,7.83,7.83v46.97c0,5.22-2.62,7.83-7.83,7.83h-125.25c-5.22,0-7.83-2.6-7.83-7.83v-46.97c0-5.21,2.6-7.83,7.83-7.83s7.83-2.61,7.83-7.83-2.62-7.83-7.83-7.83-7.83-2.61-7.83-7.83v-125.25c0-5.21,2.6-7.83,7.83-7.83s7.83-2.61,7.83-7.83-2.62-7.83-7.83-7.83-7.83-2.61-7.83-7.83-2.62-7.83-7.83-7.83-7.83,2.62-7.83,7.83v156.56c0,5.22-2.62,7.83-7.83,7.83s-7.83,2.62-7.83,7.83,2.61,7.83,7.83,7.83,7.83,2.62,7.83,7.83v46.97c0,5.22-2.62,7.83-7.83,7.83h-46.97c-5.22,0-7.83-2.6-7.83-7.83v-46.97ZM77.89,439.11c5.21,0,7.83-2.61,7.83-7.83s-2.62-7.83-7.83-7.83-7.83,2.62-7.83,7.83,2.6,7.83,7.83,7.83ZM117.03,243.41c5.21,0,7.83-2.6,7.83-7.83s-2.62-7.83-7.83-7.83-7.83,2.62-7.83,7.83,2.61,7.83,7.83,7.83ZM156.17,282.55c5.21,0,7.83-2.61,7.83-7.83s-2.62-7.83-7.83-7.83-7.83,2.62-7.83,7.83,2.61,7.83,7.83,7.83ZM156.17,439.11c5.21,0,7.83-2.61,7.83-7.83s-2.62-7.83-7.83-7.83-7.83,2.62-7.83,7.83,2.61,7.83,7.83,7.83ZM234.45,282.55c5.21,0,7.83-2.61,7.83-7.83s-2.62-7.83-7.83-7.83-7.83,2.62-7.83,7.83,2.61,7.83,7.83,7.83ZM234.45,439.11c5.21,0,7.83-2.61,7.83-7.83s-2.62-7.83-7.83-7.83-7.83,2.62-7.83,7.83,2.61,7.83,7.83,7.83ZM312.73,282.55c5.21,0,7.83-2.61,7.83-7.83s-2.62-7.83-7.83-7.83-7.83,2.62-7.83,7.83,2.6,7.83,7.83,7.83Z"/><path d="M361.97,446.94c0-5.21,2.61-7.83,7.83-7.83s7.83-2.61,7.83-7.83-2.62-7.83-7.83-7.83-7.83-2.61-7.83-7.83v-203.53c0-5.21,2.61-7.83,7.83-7.83h46.97c5.21,0,7.83,2.62,7.83,7.83s2.61,7.83,7.83,7.83,7.83-2.61,7.83-7.83,2.6-7.83,7.83-7.83h203.53c5.21,0,7.83,2.62,7.83,7.83v46.97c0,5.22-2.62,7.83-7.83,7.83h-156.56c-5.22,0-7.83,2.62-7.83,7.83s2.61,7.83,7.83,7.83,7.83,2.62,7.83,7.83,2.6,7.83,7.83,7.83,7.83-2.6,7.83-7.83,2.61-7.83,7.83-7.83h125.25c5.21,0,7.83,2.62,7.83,7.83v46.97c0,5.22-2.62,7.83-7.83,7.83h-125.25c-5.22,0-7.83-2.6-7.83-7.83s-2.62-7.83-7.83-7.83-7.83,2.62-7.83,7.83v78.28c0,5.22-2.62,7.83-7.83,7.83s-7.83,2.62-7.83,7.83,2.61,7.83,7.83,7.83,7.83,2.62,7.83,7.83v46.97c0,5.22-2.62,7.83-7.83,7.83h-125.25c-5.22,0-7.83-2.6-7.83-7.83v-46.97ZM393.28,439.11c5.21,0,7.83-2.61,7.83-7.83s-2.62-7.83-7.83-7.83-7.83,2.62-7.83,7.83,2.6,7.83,7.83,7.83ZM416.76,439.11h31.31c5.21,0,7.83-2.61,7.83-7.83s-2.62-7.83-7.83-7.83-7.83-2.61-7.83-7.83v-125.25c0-5.21,2.6-7.83,7.83-7.83s7.83-2.61,7.83-7.83-2.62-7.83-7.83-7.83-7.83-2.61-7.83-7.83-2.62-7.83-7.83-7.83-7.83,2.62-7.83,7.83v156.56c0,5.22-2.62,7.83-7.83,7.83s-7.83,2.62-7.83,7.83,2.61,7.83,7.83,7.83ZM432.42,243.41c5.21,0,7.83-2.6,7.83-7.83s-2.62-7.83-7.83-7.83-7.83,2.62-7.83,7.83,2.61,7.83,7.83,7.83ZM471.56,282.55c5.21,0,7.83-2.61,7.83-7.83s-2.62-7.83-7.83-7.83-7.83,2.62-7.83,7.83,2.61,7.83,7.83,7.83ZM471.56,439.11c5.21,0,7.83-2.61,7.83-7.83s-2.62-7.83-7.83-7.83-7.83,2.62-7.83,7.83,2.61,7.83,7.83,7.83ZM510.7,321.69c5.21,0,7.83-2.61,7.83-7.83s-2.62-7.83-7.83-7.83-7.83,2.62-7.83,7.83,2.6,7.83,7.83,7.83Z"/></svg>