<?xml version="1.0" encoding="UTF-8"?><svg id="c" xmlns="http://www.w3.org/2000/svg" viewBox="0 0 486.12 486.12"><g id="d"><g id="e"><path d="M243.06,50.06c51.55,0,100.02,20.08,136.47,56.53,36.45,36.45,56.53,84.92,56.53,136.47s-20.08,100.02-56.53,136.47c-36.45,36.45-84.92,56.53-136.47,56.53s-100.02-20.08-136.47-56.53c-36.45-36.45-56.53-84.92-56.53-136.47s20.08-100.02,56.53-136.47c36.45-36.45,84.92-56.53,136.47-56.53M243.06,30.06C125.43,30.06,30.06,125.43,30.06,243.06s95.36,213,213,213,213-95.36,213-213S360.7,30.06,243.06,30.06h0Z"/></g></g></svg>